<svg width="23" height="15" viewBox="0 0 23 15" fill="none" xmlns="http://www.w3.org/2000/svg">
<path fill-rule="evenodd" clip-rule="evenodd" d="M20.2187 7.5C20.2187 7.75693 20.1167 8.00334 19.935 8.18501C19.7533 8.36669 19.5069 8.46875 19.25 8.46875L1.8125 8.46875C1.55557 8.46875 1.30917 8.36669 1.12749 8.18501C0.945814 8.00333 0.84375 7.75693 0.84375 7.5C0.84375 7.24307 0.945814 6.99667 1.12749 6.81499C1.30917 6.63331 1.55557 6.53125 1.8125 6.53125L19.25 6.53125C19.5069 6.53125 19.7533 6.63331 19.935 6.81499C20.1167 6.99667 20.2187 7.24307 20.2187 7.5V7.5Z" fill="black"/>
<path fill-rule="evenodd" clip-rule="evenodd" d="M21.8736 6.81437C21.9638 6.90436 22.0354 7.01126 22.0842 7.12896C22.1331 7.24665 22.1582 7.37282 22.1582 7.50025C22.1582 7.62767 22.1331 7.75384 22.0842 7.87154C22.0354 7.98923 21.9638 8.09614 21.8736 8.18612L16.0611 13.9986C15.8792 14.1805 15.6325 14.2827 15.3752 14.2827C15.118 14.2827 14.8713 14.1805 14.6893 13.9986C14.5074 13.8167 14.4052 13.57 14.4052 13.3127C14.4052 13.0555 14.5074 12.8088 14.6893 12.6269L19.8179 7.50025L14.6893 2.37362C14.5074 2.19172 14.4052 1.945 14.4052 1.68775C14.4052 1.43049 14.5074 1.18378 14.6893 1.00187C14.8713 0.819967 15.118 0.717773 15.3752 0.717773C15.6325 0.717773 15.8792 0.819967 16.0611 1.00187L21.8736 6.81437Z" fill="black"/>
</svg>
