<svg width="50" height="50" viewBox="0 0 50 50" fill="none" xmlns="http://www.w3.org/2000/svg">
<circle cx="25" cy="25" r="24.6313" fill="white" stroke="#C8D1DB" stroke-width="0.73741"/>
<path fill-rule="evenodd" clip-rule="evenodd" d="M14.5 19V34C14.5 34.3978 14.658 34.7794 14.9393 35.0607C15.2206 35.342 15.6022 35.5 16 35.5H34C34.3978 35.5 34.7794 35.342 35.0607 35.0607C35.342 34.7794 35.5 34.3978 35.5 34V19H14.5ZM16 14.5C15.2044 14.5 14.4413 14.8161 13.8787 15.3787C13.3161 15.9413 13 16.7044 13 17.5V34C13 34.7956 13.3161 35.5587 13.8787 36.1213C14.4413 36.6839 15.2044 37 16 37H34C34.7956 37 35.5587 36.6839 36.1213 36.1213C36.6839 35.5587 37 34.7956 37 34V17.5C37 16.7044 36.6839 15.9413 36.1213 15.3787C35.5587 14.8161 34.7956 14.5 34 14.5H16Z" fill="#344356"/>
<path fill-rule="evenodd" clip-rule="evenodd" d="M18.25 13C18.4489 13 18.6397 13.079 18.7803 13.2197C18.921 13.3603 19 13.5511 19 13.75V14.5C19 14.6989 18.921 14.8897 18.7803 15.0303C18.6397 15.171 18.4489 15.25 18.25 15.25C18.0511 15.25 17.8603 15.171 17.7197 15.0303C17.579 14.8897 17.5 14.6989 17.5 14.5V13.75C17.5 13.5511 17.579 13.3603 17.7197 13.2197C17.8603 13.079 18.0511 13 18.25 13V13ZM31.75 13C31.9489 13 32.1397 13.079 32.2803 13.2197C32.421 13.3603 32.5 13.5511 32.5 13.75V14.5C32.5 14.6989 32.421 14.8897 32.2803 15.0303C32.1397 15.171 31.9489 15.25 31.75 15.25C31.5511 15.25 31.3603 15.171 31.2197 15.0303C31.079 14.8897 31 14.6989 31 14.5V13.75C31 13.5511 31.079 13.3603 31.2197 13.2197C31.3603 13.079 31.5511 13 31.75 13V13Z" fill="#344356"/>
<path d="M22.2197 26.7197C22.079 26.8603 22 27.0511 22 27.25V28.75C22 28.9489 22.079 29.1397 22.2197 29.2803C22.3603 29.421 22.5511 29.5 22.75 29.5H24.25C24.4489 29.5 24.6397 29.421 24.7803 29.2803C24.921 29.1397 25 28.9489 25 28.75V27.25C25 27.0511 24.921 26.8603 24.7803 26.7197C24.6397 26.579 24.4489 26.5 24.25 26.5H22.75C22.5511 26.5 22.3603 26.579 22.2197 26.7197Z" fill="#33BEF2"/>
<path d="M29.5 22.75C29.5 22.5511 29.579 22.3603 29.7197 22.2197C29.8603 22.079 30.0511 22 30.25 22H31.75C31.9489 22 32.1397 22.079 32.2803 22.2197C32.421 22.3603 32.5 22.5511 32.5 22.75V24.25C32.5 24.4489 32.421 24.6397 32.2803 24.7803C32.1397 24.921 31.9489 25 31.75 25H30.25C30.0511 25 29.8603 24.921 29.7197 24.7803C29.579 24.6397 29.5 24.4489 29.5 24.25V22.75ZM25 22.75C25 22.5511 25.079 22.3603 25.2197 22.2197C25.3603 22.079 25.5511 22 25.75 22H27.25C27.4489 22 27.6397 22.079 27.7803 22.2197C27.921 22.3603 28 22.5511 28 22.75V24.25C28 24.4489 27.921 24.6397 27.7803 24.7803C27.6397 24.921 27.4489 25 27.25 25H25.75C25.5511 25 25.3603 24.921 25.2197 24.7803C25.079 24.6397 25 24.4489 25 24.25V22.75ZM17.5 27.25C17.5 27.0511 17.579 26.8603 17.7197 26.7197C17.8603 26.579 18.0511 26.5 18.25 26.5H19.75C19.9489 26.5 20.1397 26.579 20.2803 26.7197C20.421 26.8603 20.5 27.0511 20.5 27.25V28.75C20.5 28.9489 20.421 29.1397 20.2803 29.2803C20.1397 29.421 19.9489 29.5 19.75 29.5H18.25C18.0511 29.5 17.8603 29.421 17.7197 29.2803C17.579 29.1397 17.5 28.9489 17.5 28.75V27.25Z" fill="#344356"/>
</svg>
