<svg width="32" height="32" viewBox="0 0 32 32" fill="none" xmlns="http://www.w3.org/2000/svg">
<path d="M29.707 19.2928L26.707 16.2928C26.5195 16.1053 26.2652 16 26 16C25.7348 16 25.4805 16.1053 25.293 16.2928L16 25.5858V29.9998H20.414L29.707 20.7068C29.8945 20.5193 29.9998 20.265 29.9998 19.9998C29.9998 19.7346 29.8945 19.4803 29.707 19.2928ZM19.586 27.9998H18V26.4138L23 21.4138L24.586 22.9998L19.586 27.9998ZM26 21.5858L24.414 19.9998L26 18.4138L27.586 19.9998L26 21.5858Z" fill="#344356"/>
<path d="M19 18C18.4477 18 18 17.5523 18 17V15C18 14.4477 18.4477 14 19 14C19.5523 14 20 14.4477 20 15V17C20 17.5523 19.5523 18 19 18Z" fill="#33BEF2"/>
<path d="M15 18C14.4477 18 14 17.5523 14 17V13C14 12.4477 14.4477 12 15 12C15.5523 12 16 12.4477 16 13V17C16 17.5523 15.5523 18 15 18Z" fill="#33BEF2"/>
<path d="M11 18C10.4477 18 10 17.5523 10 17V9C10 8.44772 10.4477 8 11 8C11.5523 8 12 8.44772 12 9V17C12 17.5523 11.5523 18 11 18Z" fill="#33BEF2"/>
<path d="M12 29C12 29.5523 11.5523 30 11 30H6C5.46973 29.9995 4.96133 29.7886 4.58637 29.4136C4.21141 29.0387 4.00053 28.5303 4 28V4C4.00053 3.46973 4.21141 2.96133 4.58637 2.58637C4.96133 2.21141 5.46973 2.00053 6 2H22C22.5303 2.00053 23.0387 2.21141 23.4136 2.58637C23.7886 2.96133 23.9995 3.46973 24 4V13C24 13.5523 23.5523 14 23 14C22.4477 14 22 13.5523 22 13V4H6V28H11C11.5523 28 12 28.4477 12 29Z" fill="#344356"/>
</svg>
