<svg width="32" height="32" viewBox="0 0 32 32" fill="none" xmlns="http://www.w3.org/2000/svg">
<path d="M23.3636 25.9822L21.2925 23.9504C20.8736 23.5395 20.2028 23.5395 19.7839 23.9504C19.3534 24.3727 19.3534 25.0661 19.7839 25.4883L21.2237 26.9008C22.4122 28.0666 24.3151 28.0666 25.5036 26.9008L30.2161 22.2779C30.6466 21.8556 30.6466 21.1622 30.2161 20.74C29.7972 20.329 29.1264 20.329 28.7075 20.74L23.3636 25.9822Z" fill="#33BEF2"/>
<path d="M15 24C15 23.4477 15.4477 23 16 23C16.5523 23 17 23.4477 17 24C17 24.5523 16.5523 25 16 25C15.4477 25 15 24.5523 15 24Z" fill="#344356"/>
<path d="M9 24C9 23.4477 9.44772 23 10 23C10.5523 23 11 23.4477 11 24C11 24.5523 10.5523 25 10 25C9.44772 25 9 24.5523 9 24Z" fill="#344356"/>
<path d="M21 19C21 18.4477 21.4477 18 22 18C22.5523 18 23 18.4477 23 19C23 19.5523 22.5523 20 22 20C21.4477 20 21 19.5523 21 19Z" fill="#344356"/>
<path d="M15 19C15 18.4477 15.4477 18 16 18C16.5523 18 17 18.4477 17 19C17 19.5523 16.5523 20 16 20C15.4477 20 15 19.5523 15 19Z" fill="#344356"/>
<path d="M9 19C9 18.4477 9.44772 18 10 18C10.5523 18 11 18.4477 11 19C11 19.5523 10.5523 20 10 20C9.44772 20 9 19.5523 9 19Z" fill="#344356"/>
<path d="M21 14C21 13.4477 21.4477 13 22 13C22.5523 13 23 13.4477 23 14C23 14.5523 22.5523 15 22 15C21.4477 15 21 14.5523 21 14Z" fill="#344356"/>
<path d="M15 14C15 13.4477 15.4477 13 16 13C16.5523 13 17 13.4477 17 14C17 14.5523 16.5523 15 16 15C15.4477 15 15 14.5523 15 14Z" fill="#344356"/>
<path d="M9 14C9 13.4477 9.44772 13 10 13C10.5523 13 11 13.4477 11 14C11 14.5523 10.5523 15 10 15C9.44772 15 9 14.5523 9 14Z" fill="#344356"/>
<path d="M9 8C9 7.44772 9.44772 7 10 7H22C22.5523 7 23 7.44772 23 8C23 8.55228 22.5523 9 22 9H10C9.44772 9 9 8.55228 9 8Z" fill="#344356"/>
<path d="M17 29C17 29.5523 16.5523 30 16 30H6.005C5.4734 29.9995 4.96373 29.7881 4.58784 29.4122C4.21194 29.0363 4.00053 28.5266 4 27.995V3.996C4.00053 3.46679 4.21099 2.95941 4.5852 2.5852C4.95941 2.21099 5.46679 2.00053 5.996 2H26.004C26.5332 2.00053 27.0406 2.21099 27.4148 2.5852C27.789 2.95941 27.9995 3.46679 28 3.996V17C28 17.5523 27.5523 18 27 18C26.4477 18 26 17.5523 26 17V4H6V28H16C16.5523 28 17 28.4477 17 29Z" fill="#344356"/>
</svg>
