<svg width="50" height="50" viewBox="0 0 50 50" fill="none" xmlns="http://www.w3.org/2000/svg">
<circle cx="25" cy="25" r="24.6313" fill="white" stroke="#C8D1DB" stroke-width="0.73741"/>
<path d="M27.082 32.583C27.082 32.2147 27.1254 31.8572 27.1795 31.4997H16.2487V22.9997H33.582V26.083C34.3404 26.083 35.0662 26.2238 35.7487 26.4622V18.4997C35.7487 17.2972 34.7845 16.333 33.582 16.333H16.2487C15.0462 16.333 14.082 17.2972 14.082 18.4997V31.4997C14.082 32.0743 14.3103 32.6254 14.7166 33.0317C15.123 33.4381 15.6741 33.6663 16.2487 33.6663H27.1795C27.1254 33.3088 27.082 32.9513 27.082 32.583ZM16.2487 18.4997H33.582V20.6663H16.2487V18.4997Z" fill="#344356"/>
<circle cx="19.5" cy="28.5" r="1" stroke="#344356"/>
<circle cx="23.5" cy="28.5" r="1.5" fill="#344356"/>
<path d="M32.8913 32.5637L30.6476 30.3626C30.1938 29.9174 29.4671 29.9174 29.0132 30.3626C28.5469 30.8201 28.5469 31.5712 29.0132 32.0287L30.5731 33.5589C31.8606 34.8218 33.9221 34.8218 35.2096 33.5589L40.3149 28.5507C40.7812 28.0932 40.7812 27.3421 40.3149 26.8846C39.861 26.4394 39.1344 26.4394 38.6805 26.8846L32.8913 32.5637Z" fill="#33BEF2"/>
</svg>
