<svg width="50" height="50" viewBox="0 0 50 50" fill="none" xmlns="http://www.w3.org/2000/svg">
<circle cx="25" cy="25" r="24.6313" fill="white" stroke="#C8D1DB" stroke-width="0.73741"/>
<path d="M33.7273 32.4807L31.4835 30.2796C31.0297 29.8344 30.303 29.8344 29.8492 30.2796C29.3829 30.7371 29.3829 31.4882 29.8492 31.9457L31.409 33.4759C32.6965 34.7388 34.758 34.7388 36.0455 33.4759L41.1508 28.4677C41.6171 28.0102 41.6171 27.2591 41.1508 26.8016C40.697 26.3564 39.9703 26.3564 39.5165 26.8016L33.7273 32.4807Z" fill="#33BEF2"/>
<path d="M26.6641 27.6663C26.6641 26.7915 24.183 26.083 21.1224 26.083M26.6641 27.6663C26.6641 28.5411 24.183 29.2497 21.1224 29.2497C18.0618 29.2497 15.5807 28.5411 15.5807 27.6663M26.6641 27.6663V31.5748C26.6641 32.4765 24.183 33.208 21.1224 33.208C18.0618 33.208 15.5807 32.4773 15.5807 31.5748V27.6663M26.6641 27.6663C29.6914 27.6663 32.2057 26.885 32.2057 26.083V18.1663M21.1224 26.083C18.0618 26.083 15.5807 26.7915 15.5807 27.6663M21.1224 26.083C17.6248 26.083 14.7891 25.3016 14.7891 24.4997V20.5413M14.7891 20.5413C14.7891 19.6665 17.6248 18.958 21.1224 18.958V22.1247M14.7891 20.5413C14.7891 21.4161 17.6248 22.1247 21.1224 22.1247M21.1224 22.1247C21.1224 22.9266 23.6977 23.708 26.725 23.708C29.7516 23.708 32.2057 22.9266 32.2057 22.1247M32.2057 18.1663C32.2057 17.2915 29.7516 16.583 26.725 16.583C23.6977 16.583 21.2443 17.2915 21.2443 18.1663M32.2057 18.1663C32.2057 19.0411 29.7516 19.7497 26.725 19.7497C23.6985 19.7497 21.2443 19.0411 21.2443 18.1663M21.2443 18.1663V26.2144" stroke="#344356" stroke-width="1.5" stroke-linecap="round" stroke-linejoin="round"/>
</svg>
