<svg width="14" height="14" viewBox="0 0 14 14" fill="none" xmlns="http://www.w3.org/2000/svg">
<path d="M6.8608 0C3.07204 0 0 3.13438 0 7C0 10.8656 3.07204 14 6.8608 14C10.6495 14 13.7216 10.8656 13.7216 7C13.7216 3.13438 10.6495 0 6.8608 0ZM7.35085 10.375C7.35085 10.4438 7.29572 10.5 7.22834 10.5H6.49325C6.42587 10.5 6.37074 10.4438 6.37074 10.375V6.125C6.37074 6.05625 6.42587 6 6.49325 6H7.22834C7.29572 6 7.35085 6.05625 7.35085 6.125V10.375ZM6.8608 5C6.66844 4.99599 6.48528 4.91522 6.35063 4.775C6.21598 4.63478 6.14056 4.4463 6.14056 4.25C6.14056 4.0537 6.21598 3.86522 6.35063 3.725C6.48528 3.58478 6.66844 3.50401 6.8608 3.5C7.05315 3.50401 7.23631 3.58478 7.37096 3.725C7.50561 3.86522 7.58103 4.0537 7.58103 4.25C7.58103 4.4463 7.50561 4.63478 7.37096 4.775C7.23631 4.91522 7.05315 4.99599 6.8608 5Z" fill="white"/>
</svg>
