<svg width="14" height="15" viewBox="0 0 14 15" fill="none" xmlns="http://www.w3.org/2000/svg">
<path d="M6.9901 0.400391C3.12994 0.400391 0 3.53477 0 7.40039C0 11.266 3.12994 14.4004 6.9901 14.4004C10.8503 14.4004 13.9802 11.266 13.9802 7.40039C13.9802 3.53477 10.8503 0.400391 6.9901 0.400391ZM7.4894 10.7754C7.4894 10.8441 7.43323 10.9004 7.36457 10.9004H6.61563C6.54698 10.9004 6.49081 10.8441 6.49081 10.7754V6.52539C6.49081 6.45664 6.54698 6.40039 6.61563 6.40039H7.36457C7.43323 6.40039 7.4894 6.45664 7.4894 6.52539V10.7754ZM6.9901 5.40039C6.79412 5.39638 6.60751 5.31561 6.47032 5.17539C6.33314 5.03517 6.2563 4.84669 6.2563 4.65039C6.2563 4.45409 6.33314 4.26561 6.47032 4.12539C6.60751 3.98517 6.79412 3.9044 6.9901 3.90039C7.18609 3.9044 7.3727 3.98517 7.50988 4.12539C7.64707 4.26561 7.72391 4.45409 7.72391 4.65039C7.72391 4.84669 7.64707 5.03517 7.50988 5.17539C7.3727 5.31561 7.18609 5.39638 6.9901 5.40039Z" fill="#475062"/>
</svg>
