<svg width="26" height="24" viewBox="0 0 26 24" fill="none" xmlns="http://www.w3.org/2000/svg">
<path d="M13 19C13 18.66 13.04 18.33 13.09 18H3V12H19V13C19.7 13 20.37 13.13 21 13.35V6C21 4.89 20.11 4 19 4H3C1.89 4 1 4.89 1 6V18C1 18.5304 1.21071 19.0391 1.58579 19.4142C1.96086 19.7893 2.46957 20 3 20H13.09C13.04 19.67 13 19.34 13 19ZM3 6H19V8H3V6Z" fill="#344356"/>
<path d="M18.3636 18.9822L16.2925 16.9504C15.8736 16.5395 15.2028 16.5395 14.7839 16.9504C14.3534 17.3727 14.3534 18.0661 14.7839 18.4883L16.2237 19.9008C17.4122 21.0666 19.3151 21.0666 20.5036 19.9008L25.2161 15.2779C25.6466 14.8556 25.6466 14.1622 25.2161 13.74C24.7972 13.329 24.1264 13.329 23.7075 13.74L18.3636 18.9822Z" fill="#33BEF2"/>
</svg>
